HIERARCHY
ROOT Hips
{
	OFFSET 0.000000 0.000000 0.000000
	CHANNELS 6 Xposition Yposition Zposition Zrotation Xrotation Yrotation
	JOINT Spine
	{
		OFFSET 0.000000 -0.000000 0.070167
		CHANNELS 6 Xposition Yposition Zposition Zrotation Xrotation Yrotation
		JOINT Spine1
		{
			OFFSET 0.000000 -0.000000 0.166666
			CHANNELS 6 Xposition Yposition Zposition Zrotation Xrotation Yrotation
			JOINT Neck
			{
				OFFSET 0.000000 -0.000000 0.183780
				CHANNELS 6 Xposition Yposition Zposition Zrotation Xrotation Yrotation
				JOINT Head
				{
					OFFSET 0.000000 -0.017114 0.132633
					CHANNELS 6 Xposition Yposition Zposition Zrotation Xrotation Yrotation
					End Site
					{
						OFFSET 0.000000 -0.000000 0.171140
					}
				}
			}
			JOINT LeftShoulder
			{
				OFFSET 0.034466 0.004091 0.144174
				CHANNELS 6 Xposition Yposition Zposition Zrotation Xrotation Yrotation
				JOINT LeftArm
				{
					OFFSET 0.121044 0.000000 0.000000
					CHANNELS 6 Xposition Yposition Zposition Zrotation Xrotation Yrotation
					JOINT LeftForeArm
					{
						OFFSET 0.257070 0.000000 0.000000
						CHANNELS 6 Xposition Yposition Zposition Zrotation Xrotation Yrotation
						JOINT LeftHand
						{
							OFFSET 0.224060 0.000000 0.000000
							CHANNELS 6 Xposition Yposition Zposition Zrotation Xrotation Yrotation
							End Site
							{
								OFFSET 0.128355 0.000000 0.000000
							}
						}
					}
				}
			}
			JOINT RightShoulder
			{
				OFFSET -0.033538 0.004091 0.144174
				CHANNELS 6 Xposition Yposition Zposition Zrotation Xrotation Yrotation
				JOINT RightArm
				{
					OFFSET -0.121044 0.000000 0.000000
					CHANNELS 6 Xposition Yposition Zposition Zrotation Xrotation Yrotation
					JOINT RightForeArm
					{
						OFFSET -0.257070 0.000000 0.000000
						CHANNELS 6 Xposition Yposition Zposition Zrotation Xrotation Yrotation
						JOINT RightHand
						{
							OFFSET -0.224060 0.000000 0.000000
							CHANNELS 6 Xposition Yposition Zposition Zrotation Xrotation Yrotation
							End Site
							{
								OFFSET -0.128355 0.000000 0.000000
							}
						}
					}
				}
			}
		}
	}
	JOINT LeftUpLeg
	{
		OFFSET 0.085570 0.000000 0.000000
		CHANNELS 6 Xposition Yposition Zposition Zrotation Xrotation Yrotation
		JOINT LeftLeg
		{
			OFFSET 0.000000 0.000000 -0.385526
			CHANNELS 6 Xposition Yposition Zposition Zrotation Xrotation Yrotation
			JOINT LeftFoot
			{
				OFFSET 0.000000 0.000000 -0.365921
				CHANNELS 6 Xposition Yposition Zposition Zrotation Xrotation Yrotation
				JOINT LeftToeBase
				{
					OFFSET 0.000000 -0.128355 -0.055620
					CHANNELS 6 Xposition Yposition Zposition Zrotation Xrotation Yrotation
					End Site
					{
						OFFSET 0.000000 -0.034228 0.000000
					}
				}
			}
		}
	}
	JOINT RightUpLeg
	{
		OFFSET -0.085570 0.000000 0.000000
		CHANNELS 6 Xposition Yposition Zposition Zrotation Xrotation Yrotation
		JOINT RightLeg
		{
			OFFSET 0.000000 0.000000 -0.385526
			CHANNELS 6 Xposition Yposition Zposition Zrotation Xrotation Yrotation
			JOINT RightFoot
			{
				OFFSET 0.000000 0.000000 -0.365921
				CHANNELS 6 Xposition Yposition Zposition Zrotation Xrotation Yrotation
				JOINT RightToeBase
				{
					OFFSET 0.000000 -0.128355 -0.055620
					CHANNELS 6 Xposition Yposition Zposition Zrotation Xrotation Yrotation
					End Site
					{
						OFFSET 0.000000 -0.034228 0.000000
					}
				}
			}
		}
	}
}
MOTION
Frames: 4
Frame Time: 0.016667
0.457517 0.000321 0.815364 -77.216238 -6.714146 -3.417613 0.000000 -0.000000 0.070167 -2.657331 2.194116 -0.703403 -0.000000 -0.000000 0.166666 -0.821514 6.777965 -1.164390 -0.000000 -0.000000 0.183780 0.645087 8.168422 -0.511285 -0.000000 -0.017114 0.132633 0.487200 7.946151 -3.487424 0.034466 0.004091 0.144174 -3.890175 7.318531 -3.769169 0.121044 -0.000000 0.000000 -30.104527 -3.797406 62.372003 0.257070 -0.000000 -0.000000 -53.592601 13.769418 -5.883108 0.224060 -0.000000 0.000000 -8.506973 10.828241 0.486442 -0.033538 0.004091 0.144174 -16.247948 8.643725 5.864411 -0.121044 -0.000000 0.000000 54.343307 9.453636 -69.431106 -0.257070 -0.000000 0.000000 53.214455 3.195480 23.008532 -0.224060 -0.000000 -0.000000 18.210519 -6.582074 12.000823 0.085570 0.000000 0.000000 8.119124 -7.943396 -0.616503 0.000000 0.000000 -0.385526 22.746845 43.201592 -11.043358 -0.000000 0.000000 -0.365921 9.203405 -11.092821 13.367608 0.000000 -0.128355 -0.055620 0.000004 -0.000002 0.000000 -0.085570 -0.000000 0.000000 5.632110 6.969864 -0.458142 -0.000000 0.000000 -0.385526 31.375809 14.593471 -10.559340 -0.000000 0.000000 -0.365921 -8.864996 -11.535241 12.516216 0.000000 -0.128355 -0.055620 -0.000005 0.000002 0.000001 
0.452010 -0.000133 0.814883 -78.197483 -6.779388 -3.531671 -0.000000 -0.000000 0.070167 -1.748494 2.437607 -0.902727 0.000000 0.000000 0.166666 -0.536392 6.575756 -0.924294 -0.000000 -0.000000 0.183780 0.420742 8.329382 -0.112658 0.000000 -0.017114 0.132633 0.224603 8.124447 -3.698585 0.034466 0.004091 0.144174 -3.526832 7.515688 -3.755373 0.121044 -0.000000 -0.000000 -28.490795 -3.394396 63.155283 0.257070 0.000000 0.000000 -53.349115 13.704336 -4.787957 0.224060 -0.000000 0.000000 -8.842193 11.354448 0.004375 -0.033538 0.004091 0.144174 -15.980976 8.571032 5.778461 -0.121044 -0.000000 -0.000000 55.358892 9.029691 -68.182077 -0.257070 -0.000000 -0.000000 54.194795 3.353352 23.614127 -0.224060 0.000000 0.000000 18.508301 -6.827408 12.866686 0.085570 -0.000000 0.000000 7.609461 -8.496197 0.054091 -0.000000 0.000000 -0.385526 23.018434 41.816061 -10.945287 0.000000 0.000000 -0.365921 9.530958 -11.254596 13.522204 -0.000000 -0.128355 -0.055620 0.000001 0.000003 -0.000001 -0.085570 -0.000000 0.000000 5.538466 7.312080 -0.361685 0.000000 0.000000 -0.385526 31.849080 14.770957 -10.611495 0.000000 0.000000 -0.365921 -8.114140 -11.650182 13.006912 0.000000 -0.128355 -0.055620 0.000002 -0.000001 0.000000 
0.446349 -0.000758 0.814524 -79.210530 -6.795884 -3.680411 0.000000 0.000000 0.070167 -0.827534 2.587949 -1.100120 0.000000 -0.000000 0.166666 -0.247879 6.444751 -0.649914 -0.000000 -0.000000 0.183780 0.190224 8.514345 0.303838 -0.000000 -0.017114 0.132633 -0.050253 8.117676 -3.908350 0.034466 0.004091 0.144174 -3.106156 7.657877 -3.736063 0.121044 -0.000000 -0.000000 -26.879877 -2.778843 63.867207 0.257070 0.000000 -0.000000 -53.303708 13.543909 -3.726424 0.224060 0.000000 -0.000000 -8.961120 11.739285 -0.272897 -0.033538 0.004091 0.144174 -15.590581 8.320363 5.730119 -0.121044 0.000000 0.000000 56.451578 8.623056 -67.029906 -0.257070 -0.000000 -0.000000 54.755967 3.757627 24.392540 -0.224060 0.000000 0.000000 19.002918 -7.061629 12.148700 0.085570 0.000000 -0.000000 7.107532 -8.974251 0.767311 -0.000000 0.000000 -0.385526 22.729814 40.223257 -10.472778 0.000000 0.000000 -0.365921 10.079526 -11.362060 13.507663 0.000000 -0.128355 -0.055620 0.000000 0.000002 -0.000001 -0.085570 0.000000 -0.000000 5.692463 7.620507 -0.226349 0.000000 0.000000 -0.385526 31.462437 15.032270 -10.523457 -0.000000 0.000000 -0.365921 -7.003004 -11.859154 12.871203 0.000000 -0.128355 -0.055620 0.000005 0.000001 -0.000000 
0.441045 -0.000707 0.813993 -80.104206 -6.691369 -3.688931 0.000000 -0.000000 0.070167 0.031431 2.789105 -1.279491 -0.000000 -0.000000 0.166666 0.046380 6.193595 -0.573924 0.000000 -0.000000 0.183780 1.221593 6.733366 1.673034 0.000000 -0.017114 0.132633 0.920792 10.924189 -6.790468 0.034466 0.004091 0.144174 -2.645230 7.661245 -3.578725 0.121044 -0.000000 0.000000 -25.738108 -1.679910 64.475080 0.257070 0.000000 -0.000000 -53.184566 13.480146 -3.194131 0.224060 -0.000000 -0.000000 -9.359331 11.948274 -0.352737 -0.033538 0.004091 0.144174 -15.322302 7.980848 5.725451 -0.121044 -0.000000 -0.000000 57.696179 8.403358 -65.795335 -0.257070 -0.000000 0.000000 55.556830 3.884210 25.149933 -0.224060 -0.000000 0.000000 19.170133 -7.408962 13.036430 0.085570 -0.000000 0.000000 6.543360 -9.696794 1.266288 0.000000 0.000000 -0.385526 22.366568 38.621059 -10.026534 0.000000 0.000000 -0.365921 10.309163 -11.346410 13.268938 0.000000 -0.128355 -0.055620 -0.000001 -0.000001 0.000000 -0.085570 -0.000000 0.000000 5.548089 7.781310 -0.273931 0.000000 0.000000 -0.385526 32.359804 15.138626 -10.555135 0.000000 0.000000 -0.365921 -6.571431 -11.840516 13.205292 0.000000 -0.128355 -0.055620 -0.000002 -0.000002 0.000001 
